<svg xmlns="http://www.w3.org/2000/svg" xmlns:xlink="http://www.w3.org/1999/xlink" viewBox="0 0 360.49 186"><defs><style>.cls-1{fill:#3a3a99}.cls-2{fill:url(#linear-gradient)}.cls-3{fill:url(#linear-gradient-2)}.cls-4{fill:url(#linear-gradient-3)}.cls-5{fill:url(#linear-gradient-4)}.cls-6{fill:url(#linear-gradient-5)}.cls-7{fill:#fd9805}.cls-8{fill:#ffe50a}.cls-9{fill:#fec524}.cls-10{fill:url(#linear-gradient-6)}</style><linearGradient id="linear-gradient" x1="380.92" x2="-346.08" y1="245.47" y2="-58.53" gradientUnits="userSpaceOnUse"><stop offset="0" stop-color="#38ffbf" stop-opacity="0"/><stop offset=".09" stop-color="#38ffbf" stop-opacity=".05"/><stop offset=".25" stop-color="#37ffbf" stop-opacity=".17"/><stop offset=".46" stop-color="#35ffbe" stop-opacity=".38"/><stop offset=".72" stop-color="#33ffbe" stop-opacity=".66"/><stop offset="1" stop-color="#30ffbd"/></linearGradient><linearGradient id="linear-gradient-2" x1="41.78" x2="22.37" y1="31.13" y2="23.02" xlink:href="#linear-gradient"/><linearGradient id="linear-gradient-3" x1="150.97" x2="131.56" y1="20.99" y2="12.88" xlink:href="#linear-gradient"/><linearGradient id="linear-gradient-4" x1="183.01" x2="163.61" y1="83.2" y2="75.09" xlink:href="#linear-gradient"/><linearGradient id="linear-gradient-5" x1="240.21" x2="220.81" y1="28.84" y2="20.73" xlink:href="#linear-gradient"/><linearGradient id="linear-gradient-6" x1="342.56" x2="323.16" y1="90.45" y2="82.34" xlink:href="#linear-gradient"/></defs><title>Asset 4</title><g id="Layer_2" data-name="Layer 2"><g id="Layer_1-2" data-name="Layer 1"><rect width="360" height="186" class="cls-1" transform="translate(360 186) rotate(180)"/><path d="M360.49,137.12a160.46,160.46,0,0,1-67.16,26.22c-12.76,1.81-29.93,2.66-55-1.87-63-11.39-81.1-39.53-127.2-52.72-24.32-7-60.77-11-111.13,4.93V186H360.49Z" class="cls-2"/><circle cx="36.31" cy="28.85" r="4.81" class="cls-3"/><circle cx="145.5" cy="18.7" r="4.81" class="cls-4"/><circle cx="177.54" cy="80.91" r="4.81" class="cls-5"/><circle cx="234.74" cy="26.56" r="4.81" class="cls-6"/><g id="_Group_" data-name="&lt;Group&gt;"><path id="_Path_" d="M122.36,134.22l-3,1.77a4.33,4.33,0,0,1-5.92-1.54L107.89,125a4.33,4.33,0,0,1,1.54-5.92l3-1.77Z" class="cls-7" data-name="&lt;Path&gt;"/><path id="_Path_2" d="M153.57,125.31l-23.43,11.91a5.47,5.47,0,0,1-7.15-2.13L112,116.3a4.75,4.75,0,0,1,1.41-6.33l22.36-15,17.84,30.38Z" class="cls-8" data-name="&lt;Path&gt;"/><path id="_Path_3" d="M203.47,125.46l-42.87,2.89a8.19,8.19,0,0,1-7.61-4L136.23,95.78a8.19,8.19,0,0,1,.07-8.41L159,50.16a8.19,8.19,0,0,1,14,.12L210,113.14a8.19,8.19,0,0,1-6.51,12.32" class="cls-9" data-name="&lt;Path&gt;"/><path id="_Path_4" d="M188.4,72.74l-1.69,1,9.91,16.88,1.69-1A7.85,7.85,0,0,0,201.1,78.9l-2-3.38a7.85,7.85,0,0,0-10.72-2.79" class="cls-7" data-name="&lt;Path&gt;"/><path id="_Path_5" d="M212.11,86.05a2,2,0,0,1-2.94-1.87,18.31,18.31,0,0,0-2.28-10.9,19.06,19.06,0,0,0-8.47-7.4A2,2,0,0,1,200,62.33a22.93,22.93,0,0,1,10.18,8.89c3.21,5.15,3.07,11,2.86,13.32a2,2,0,0,1-1,1.51" class="cls-8" data-name="&lt;Path&gt;"/><path id="_Path_6" d="M132.6,136l3.55,6,5.06-3a2,2,0,1,1,2,3.38l-5.06,3,2,3.38,5.06-3a2,2,0,1,1,2,3.38l-5.06,3,2,3.38,5.06-3a2,2,0,1,1,2,3.38l-5.06,3,2,3.38,5.06-3a2,2,0,1,1,2,3.38l-5.06,3,.64,1.1a6.85,6.85,0,1,0,11.81-6.94l-17.63-30Z" class="cls-7" data-name="&lt;Path&gt;"/><path id="_Path_7" d="M155.78,160a2,2,0,0,0-2.68-.7l-5.06,3,2,3.38,5.06-3a2,2,0,0,0,.7-2.68" class="cls-9" data-name="&lt;Path&gt;"/><path id="_Path_8" d="M151.81,153.24a2,2,0,0,0-2.68-.7l-5.06,3,2,3.38,5.06-3a2,2,0,0,0,.7-2.68" class="cls-9" data-name="&lt;Path&gt;"/><path id="_Path_9" d="M147.85,146.49a2,2,0,0,0-2.68-.7l-5.06,3,2,3.38,5.06-3a2,2,0,0,0,.7-2.68" class="cls-9" data-name="&lt;Path&gt;"/><path id="_Path_10" d="M143.88,139.74a2,2,0,0,0-2.68-.7l-5.06,3,2,3.38,5.06-3a2,2,0,0,0,.7-2.68" class="cls-9" data-name="&lt;Path&gt;"/><path id="_Path_11" d="M158.93,50.21,156.8,53.7l42.33,72.09,4.25-.29a8.19,8.19,0,0,0,6.51-12.31L173,50.33a8.19,8.19,0,0,0-14-.12" class="cls-8" data-name="&lt;Path&gt;"/><path id="_Path_12" d="M151.46,79.81a2,2,0,0,0-2.71.56l-5.33,8.13a7.79,7.79,0,0,0-.07,8l2.16,3.68a2,2,0,1,0,3.38-2l-2.16-3.68a3.86,3.86,0,0,1,0-3.95l5.3-8.07a2,2,0,0,0-.57-2.71" class="cls-8" data-name="&lt;Path&gt;"/><path id="_Path_13" d="M149.18,102.58a2,2,0,0,0-.7,2.68l2,3.38a2,2,0,0,0,3.38-2l-2-3.38a2,2,0,0,0-2.68-.7" class="cls-8" data-name="&lt;Path&gt;"/></g><circle cx="337.09" cy="88.16" r="4.81" class="cls-10"/><path id="_Path_14" d="M120.32,76.7a10.07,10.07,0,1,1-10.07-10.07A10.07,10.07,0,0,1,120.32,76.7" class="cls-7" data-name="&lt;Path&gt;"/><path id="_Path_15" d="M207.6,37.54a5.43,5.43,0,1,1-5.43-5.43,5.43,5.43,0,0,1,5.43,5.43" class="cls-7" data-name="&lt;Path&gt;"/></g></g></svg>