<svg xmlns="http://www.w3.org/2000/svg" xmlns:xlink="http://www.w3.org/1999/xlink" viewBox="0 0 360.49 186"><defs><style>.cls-1{fill:#3a3a99}.cls-2{fill:url(#linear-gradient)}.cls-3{fill:url(#linear-gradient-2)}.cls-4{fill:url(#linear-gradient-3)}.cls-5{fill:url(#linear-gradient-4)}.cls-6{fill:url(#linear-gradient-5)}.cls-7{fill:url(#linear-gradient-6)}.cls-8{fill:#fd9805}.cls-9{fill:#fec524}.cls-10{fill:#ffe50a}.cls-11{fill:#3a3a62}.cls-12{opacity:.43;fill:url(#linear-gradient-7)}</style><linearGradient id="linear-gradient" x1="380.92" x2="-346.08" y1="245.47" y2="-58.53" gradientUnits="userSpaceOnUse"><stop offset="0" stop-color="#38ffbf" stop-opacity="0"/><stop offset=".09" stop-color="#38ffbf" stop-opacity=".05"/><stop offset=".25" stop-color="#37ffbf" stop-opacity=".17"/><stop offset=".46" stop-color="#35ffbe" stop-opacity=".38"/><stop offset=".72" stop-color="#33ffbe" stop-opacity=".66"/><stop offset="1" stop-color="#30ffbd"/></linearGradient><linearGradient id="linear-gradient-2" x1="144.51" x2="125.11" y1="22.47" y2="14.36" xlink:href="#linear-gradient"/><linearGradient id="linear-gradient-3" x1="176.56" x2="157.15" y1="84.68" y2="76.56" xlink:href="#linear-gradient"/><linearGradient id="linear-gradient-4" x1="233.75" x2="214.35" y1="30.32" y2="22.21" xlink:href="#linear-gradient"/><linearGradient id="linear-gradient-5" x1="50.34" x2="30.93" y1="43.8" y2="35.69" xlink:href="#linear-gradient"/><linearGradient id="linear-gradient-6" x1="336.11" x2="316.7" y1="91.93" y2="83.81" xlink:href="#linear-gradient"/><linearGradient id="linear-gradient-7" x1="251.64" x2="251.01" y1="37.97" y2="89.38" gradientUnits="userSpaceOnUse"><stop offset="0" stop-color="#ee85ff"/><stop offset="1" stop-color="#ffe829"/></linearGradient></defs><title>Next Wonder Lovelace_for mobile</title><g id="Layer_2" data-name="Layer 2"><g id="Layer_1-2" data-name="Layer 1"><rect width="360" height="186" x=".25" class="cls-1" transform="translate(360.49 186) rotate(180)"/><path d="M360.49,137.12a181.59,181.59,0,0,1-59.78,22c-11.86,2.1-30.75,4.21-56.36,1-58.11-7.26-79-32.86-123.49-46.81-25.55-8-65.1-14.14-120.87.34V186H360.49Z" class="cls-2"/><circle cx="139.04" cy="20.18" r="4.81" class="cls-3"/><circle cx="171.09" cy="82.39" r="4.81" class="cls-4"/><circle cx="228.29" cy="28.03" r="4.81" class="cls-5"/><circle cx="44.87" cy="41.51" r="4.81" class="cls-6"/><circle cx="330.64" cy="89.64" r="4.81" class="cls-7"/><rect width="71.64" height="111.07" x="61.86" y="18.7" class="cls-8" rx="35.82" ry="35.82"/><path d="M77,98.65h32.7a23.76,23.76,0,0,1,23.76,23.76V186a0,0,0,0,1,0,0H53.23a0,0,0,0,1,0,0V122.42A23.76,23.76,0,0,1,77,98.65Z" class="cls-9"/><path d="M91.4,98.65h3.89a23.76,23.76,0,0,1,23.76,23.76V186a0,0,0,0,1,0,0H67.64a0,0,0,0,1,0,0V122.42A23.76,23.76,0,0,1,91.4,98.65Z" class="cls-9"/><path d="M84.32,93.79h16.91a0,0,0,0,1,0,0v4.45a8.46,8.46,0,0,1-8.46,8.46h0a8.46,8.46,0,0,1-8.46-8.46V93.79a0,0,0,0,1,0,0Z" class="cls-10"/><circle cx="95.82" cy="64.71" r="31.05" class="cls-10"/><path d="M97.5,18.7c-19.82.1-35.64,16.66-35.64,36.49v4.17h0v49.72a5.62,5.62,0,0,0,5.62,5.62h0a5.62,5.62,0,0,0,5.62-5.62V75.78c-1.88.22-3.94-.14-6.72-4.8a3.6,3.6,0,0,1-.54-2,6.49,6.49,0,0,1,8-6,16.64,16.64,0,0,0,14.3-11.27,27.26,27.26,0,0,0,45.29.48A35.82,35.82,0,0,0,97.5,18.7Z" class="cls-8"/><rect width="14.41" height="48.95" x="53.23" y="137.05" class="cls-10"/><rect width="14.41" height="48.95" x="119.06" y="137.05" class="cls-10"/><circle cx="87.62" cy="68.91" r="2.13" class="cls-11"/><circle cx="110.08" cy="68.91" r="2.13" class="cls-11"/><path d="M93.35,80.91h11.47a0,0,0,0,1,0,0v1.51a5.74,5.74,0,0,1-5.74,5.74h0a5.74,5.74,0,0,1-5.74-5.74V80.91A0,0,0,0,1,93.35,80.91Z" class="cls-11"/><path d="M232.05,37.63h38.51a7.7,7.7,0,0,1,7.7,7.7V83.83l-27,15.4-27-15.4V45.33A7.7,7.7,0,0,1,232.05,37.63Z" class="cls-8"/><polygon points="262.86 37.63 239.76 37.63 239.76 92.64 251.31 99.24 262.86 92.64 262.86 37.63" class="cls-12"/><path d="M289.53,112.54a5.59,5.59,0,0,0-4.44-3.75l-20-3.08L256.34,87a5.55,5.55,0,0,0-10.07,0l-8.71,18.67-20,3.08a5.6,5.6,0,0,0-3.14,9.43l14.68,15.14-3.41,21a5.6,5.6,0,0,0,2.28,5.47,5.53,5.53,0,0,0,5.89.33l17.47-9.71,17.47,9.71a5.57,5.57,0,0,0,8.17-5.8l-3.41-21,14.69-15.14A5.65,5.65,0,0,0,289.53,112.54Z" class="cls-10"/><path d="M251.31,118.49a7.7,7.7,0,1,1-7.7,7.7A7.7,7.7,0,0,1,251.31,118.49Z" class="cls-9"/><path d="M270.56,37.63H232.05a7.7,7.7,0,0,0-7.7,7.7h53.91A7.7,7.7,0,0,0,270.56,37.63Z" class="cls-9"/><rect width="23.1" height="7.7" x="239.76" y="37.63" class="cls-8"/></g></g></svg>