<svg xmlns="http://www.w3.org/2000/svg" width="115" height="115" viewBox="0 0 115 115"><style type="text/css">.st0{opacity:.58;fill:url(#SVGID_1_);enable-background:new}.st1{fill:url(#SVGID_2_)}.st2{fill:url(#SVGID_3_)}.st3{fill:url(#SVGID_4_)}.st4{fill:url(#SVGID_5_)}.st5{fill:url(#SVGID_6_)}.st6{fill:url(#SVGID_7_)}.st7{fill:url(#SVGID_8_)}.st8{fill:url(#SVGID_9_)}.st9{fill:url(#SVGID_10_)}.st10{fill:#3a3a62}.st11{fill:url(#SVGID_11_)}.st12{fill:url(#SVGID_12_)}.st13{fill:url(#SVGID_13_)}.st14{fill:url(#SVGID_14_)}.st15{opacity:.39;fill:url(#SVGID_15_);enable-background:new}.st16{fill:#00ffc2}</style><linearGradient id="SVGID_1_" x1="-800.389" x2="-734.517" y1="-2069.546" y2="-2069.546" gradientTransform="matrix(-.966 -.259 -.259 .966 -1227.182 1870.032)" gradientUnits="userSpaceOnUse"><stop offset="0" stop-color="#38FFBF" stop-opacity="0"/><stop offset=".684" stop-color="#35FFBE" stop-opacity=".684"/><stop offset="1" stop-color="#30FFBD"/></linearGradient><circle cx="50.7" cy="70.3" r="32.9" class="st0"/><linearGradient id="SVGID_2_" x1="48.392" x2="50.406" y1="90.6" y2="23.112" gradientTransform="matrix(1 0 0 -1 0 116)" gradientUnits="userSpaceOnUse"><stop offset="0" stop-color="#38FFBF" stop-opacity="0"/><stop offset=".684" stop-color="#35FFBE" stop-opacity=".684"/><stop offset="1" stop-color="#30FFBD"/></linearGradient><path d="M68 80.2l-37.8 4.7v-71.4h37.8z" class="st1"/><linearGradient id="SVGID_3_" x1="49.064" x2="49.408" y1="27.092" y2="66.138" gradientTransform="matrix(1 0 0 -1 0 116)" gradientUnits="userSpaceOnUse"><stop offset="0" stop-color="#388EBF"/><stop offset="1" stop-color="#30F2BB"/></linearGradient><path d="M68 84.7c0 .8-.5 1.5-1.2 1.8-4.5 2.1-10.8 3.4-17.7 3.4s-13.2-1.3-17.7-3.4c-.7-.3-1.2-1-1.2-1.8.1-19 3.6-35.6 18.9-35.6 15.3 0 18.8 16.6 18.9 35.6z" class="st2"/><linearGradient id="SVGID_4_" x1="27.191" x2="71.011" y1="21.125" y2="21.125" gradientTransform="matrix(1 0 0 -1 0 116)" gradientUnits="userSpaceOnUse"><stop offset="0" stop-color="#388EBF"/><stop offset="1" stop-color="#30F2BB"/></linearGradient><path d="M56.1 87.7v-4.8h-14v4.8c0 1.3-.8 2.4-2 2.8l-9.5 3.2c-2 .7-3.4 2.6-3.4 4.7v6.4c0 1.1.9 2 2 2h39.8c1.1 0 2-.9 2-2v-6.4c0-2.1-1.4-4-3.4-4.7l-9.5-3.2c-1.2-.3-2-1.5-2-2.8z" class="st3"/><linearGradient id="SVGID_5_" x1="48.868" x2="49.274" y1="24.743" y2="6.7" gradientTransform="matrix(1 0 0 -1 0 116)" gradientUnits="userSpaceOnUse"><stop offset="0" stop-color="#388EBF"/><stop offset="1" stop-color="#30F2BB"/></linearGradient><path d="M67.6 93.7l-7.8-2.6c-3.7 5-8 7.8-10.8 8.7-2.8-.9-7.1-3.7-10.8-8.7l-7.8 2.6c-2 .7-3.4 2.6-3.4 4.7v6.4c0 1.1.9 2 2 2h40c1.1 0 2-.9 2-2v-6.4c0-2.1-1.4-4-3.4-4.7z" class="st4"/><linearGradient id="SVGID_6_" x1="50.79" x2="50.618" y1="55.837" y2="29.357" gradientTransform="matrix(1 0 0 -1 0 116)" gradientUnits="userSpaceOnUse"><stop offset="0" stop-color="#388EBF"/><stop offset="1" stop-color="#30F2BB"/></linearGradient><path d="M50.7 87.9c-6.2 0-11.3-5.1-11.3-11.3v-15.6h22.6v15.6c0 6.2-5 11.3-11.3 11.3z" class="st5"/><linearGradient id="SVGID_7_" x1="30.675" x2="31.993" y1="9.665" y2="19.801" gradientTransform="matrix(1 0 0 -1 0 116)" gradientUnits="userSpaceOnUse"><stop offset="0" stop-color="#388EBF"/><stop offset="1" stop-color="#30F2BB"/></linearGradient><path d="M34 100.7l-5.5-5.5c-.8.9-1.3 2.1-1.3 3.3v6.4c0 1.1.9 2 2 2h6v-3.3c0-1.2-.5-2.2-1.2-2.9z" class="st6"/><linearGradient id="SVGID_8_" x1="66.139" x2="67.456" y1="5.055" y2="15.191" gradientTransform="matrix(1 0 0 -1 0 116)" gradientUnits="userSpaceOnUse"><stop offset="0" stop-color="#388EBF"/><stop offset="1" stop-color="#30F2BB"/></linearGradient><path d="M64.2 100.7l5.5-5.5c.8.9 1.3 2.1 1.3 3.3v6.4c0 1.1-.9 2-2 2h-6v-3.3c0-1.2.5-2.2 1.2-2.9z" class="st7"/><linearGradient id="SVGID_9_" x1="62.828" x2="36.777" y1="19.597" y2="19.395" gradientTransform="matrix(1 0 0 -1 0 116)" gradientUnits="userSpaceOnUse"><stop offset="0" stop-color="#388EBF"/><stop offset="1" stop-color="#30F2BB"/></linearGradient><path d="M36.7 92.3c4 5.4 8.7 8.4 11.7 9.4l.6.2.6-.2c3.1-1 7.7-4 11.7-9.4l.4-.5-2-.7c-3.7 5-8 7.8-10.8 8.7-2.8-.9-7.1-3.7-10.8-8.7l-2 .7.6.5z" class="st8"/><linearGradient id="SVGID_10_" x1="48.879" x2="49.223" y1="27.093" y2="66.14" gradientTransform="matrix(1 0 0 -1 0 116)" gradientUnits="userSpaceOnUse"><stop offset="0" stop-color="#388EBF"/><stop offset="1" stop-color="#30F2BB"/></linearGradient><path d="M35.2 60v7c11.8 0 20.8-4.1 22.3-5 1.6 4 4.5 5 4.5 5h1v-7h-27.8z" class="st9"/><ellipse cx="48.7" cy="71.3" class="st10" rx="1.1" ry="1.1" transform="matrix(.224 -.975 .975 .224 -31.731 102.822)"/><ellipse cx="58.2" cy="71.2" class="st10" rx="1.1" ry="1.1" transform="matrix(.224 -.975 .975 .224 -24.266 111.999)"/><linearGradient id="SVGID_11_" x1="81.48" x2="81.48" y1="96.889" y2="50.45" gradientTransform="matrix(1 0 0 -1 0 116)" gradientUnits="userSpaceOnUse"><stop offset="0" stop-color="#38FFBF" stop-opacity="0"/><stop offset=".684" stop-color="#35FFBE" stop-opacity=".684"/><stop offset="1" stop-color="#30FFBD"/></linearGradient><path d="M93.3 41.6h-23.7c-.9 0-1.6.7-1.6 1.6v17.3c0 .9.7 1.6 1.6 1.6h4.9v3.5l4.5-3.5h14.2c.9 0 1.6-.7 1.6-1.6v-17.2c.1-.9-.6-1.7-1.5-1.7z" class="st11"/><linearGradient id="SVGID_12_" x1="75.954" x2="76.079" y1="70.964" y2="65.777" gradientTransform="matrix(1 0 0 -1 0 116)" gradientUnits="userSpaceOnUse"><stop offset="0" stop-color="#38FFBF" stop-opacity="0"/><stop offset=".684" stop-color="#35FFBE" stop-opacity=".684"/><stop offset="1" stop-color="#30FFBD"/></linearGradient><path d="M78.9 51.1h-1c0-1-.8-1.8-1.8-1.8s-1.8.8-1.8 1.8h-1c0-1.5 1.2-2.8 2.8-2.8s2.8 1.3 2.8 2.8z" class="st12"/><linearGradient id="SVGID_13_" x1="87.361" x2="87.486" y1="71.239" y2="66.052" gradientTransform="matrix(1 0 0 -1 0 116)" gradientUnits="userSpaceOnUse"><stop offset="0" stop-color="#38FFBF" stop-opacity="0"/><stop offset=".684" stop-color="#35FFBE" stop-opacity=".684"/><stop offset="1" stop-color="#30FFBD"/></linearGradient><path d="M90.3 51.1h-1c0-1-.8-1.8-1.8-1.8s-1.8.8-1.8 1.8h-1c0-1.5 1.2-2.8 2.8-2.8s2.8 1.3 2.8 2.8z" class="st13"/><linearGradient id="SVGID_14_" x1="82.078" x2="82.191" y1="62.436" y2="57.729" gradientTransform="matrix(1 0 0 -1 0 116)" gradientUnits="userSpaceOnUse"><stop offset="0" stop-color="#38FFBF" stop-opacity="0"/><stop offset=".684" stop-color="#35FFBE" stop-opacity=".684"/><stop offset="1" stop-color="#30FFBD"/></linearGradient><path d="M82.1 58.3c-1.9 0-3.5-1.6-3.5-3.5v-1.2h6.9v1.2c.1 1.9-1.5 3.5-3.4 3.5z" class="st14"/><linearGradient id="SVGID_15_" x1="-468.217" x2="-435.761" y1="6083.81" y2="6083.81" gradientTransform="matrix(.966 .259 .259 -.966 -1059.976 6082.852)" gradientUnits="userSpaceOnUse"><stop offset="0" stop-color="#38FFBF" stop-opacity="0"/><stop offset=".684" stop-color="#35FFBE" stop-opacity=".684"/><stop offset="1" stop-color="#30FFBD"/></linearGradient><circle cx="81" cy="89.9" r="16.2" class="st15"/><path d="M32.1 32.1h-.7c-.2 0-.3-.2-.3-.3v-.6c0-.2.2-.3.3-.3h.7c.2 0 .3.2.3.3v.6c0 .1-.1.3-.3.3zM32.1 37.3h-.7c-.2 0-.3-.2-.3-.3v-.6c0-.2.2-.3.3-.3h.7c.2 0 .3.2.3.3v.6c0 .2-.1.3-.3.3zM32.1 42.5h-.7c-.2 0-.3-.2-.3-.3v-.6c0-.2.2-.3.3-.3h.7c.2 0 .3.2.3.3v.6c0 .2-.1.3-.3.3zM32.1 47.2h-.7c-.2 0-.3-.2-.3-.3v-.6c0-.2.2-.3.3-.3h.7c.2 0 .3.2.3.3v.6c0 .2-.1.3-.3.3zM32.1 51.8h-.7c-.2 0-.3-.2-.3-.3v-.6c0-.2.2-.3.3-.3h.7c.2 0 .3.2.3.3v.6c0 .1-.1.3-.3.3zM32.1 57h-.7c-.2 0-.3-.2-.3-.3v-.6c0-.2.2-.3.3-.3h.7c.2 0 .3.2.3.3v.6c0 .2-.1.3-.3.3zM32.1 62.2h-.7c-.2 0-.3-.2-.3-.3v-.6c0-.2.2-.3.3-.3h.7c.2 0 .3.2.3.3v.6c0 .1-.1.3-.3.3zM26.1 32.1h-.7c-.2 0-.3-.2-.3-.3v-.6c0-.2.2-.3.3-.3h.7c.2 0 .3.2.3.3v.6c0 .1-.1.3-.3.3zM26.1 37.3h-.7c-.2 0-.3-.2-.3-.3v-.6c0-.2.2-.3.3-.3h.7c.2 0 .3.2.3.3v.6c0 .2-.1.3-.3.3zM26.1 42.5h-.7c-.2 0-.3-.2-.3-.3v-.6c0-.2.2-.3.3-.3h.7c.2 0 .3.2.3.3v.6c0 .2-.1.3-.3.3zM26.1 47.2h-.7c-.2 0-.3-.2-.3-.3v-.6c0-.2.2-.3.3-.3h.7c.2 0 .3.2.3.3v.6c0 .2-.1.3-.3.3zM26.1 51.8h-.7c-.2 0-.3-.2-.3-.3v-.6c0-.2.2-.3.3-.3h.7c.2 0 .3.2.3.3v.6c0 .1-.1.3-.3.3zM26.1 57h-.7c-.2 0-.3-.2-.3-.3v-.6c0-.2.2-.3.3-.3h.7c.2 0 .3.2.3.3v.6c0 .2-.1.3-.3.3zM26.1 62.2h-.7c-.2 0-.3-.2-.3-.3v-.6c0-.2.2-.3.3-.3h.7c.2 0 .3.2.3.3v.6c0 .1-.1.3-.3.3zM26.1 66.9h-.7c-.2 0-.3-.2-.3-.3v-.6c0-.2.2-.3.3-.3h.7c.2 0 .3.2.3.3v.6c0 .2-.1.3-.3.3z" class="st16"/></svg>